<svg width="1000" height="175" viewBox="0 0 1000 175" fill="none" xmlns="http://www.w3.org/2000/svg">
<rect width="1000" height="175" fill="white"/>
<rect x="392.5" y="17.5" width="215" height="48" fill="#D9D9D9" stroke="black" stroke-width="3"/>
<path d="M468.148 47.1591C467.292 47.1591 466.563 46.9261 465.961 46.4602C465.359 45.9905 464.898 45.3106 464.58 44.4205C464.262 43.5265 464.103 42.447 464.103 41.1818C464.103 39.9242 464.262 38.8504 464.58 37.9602C464.902 37.0663 465.364 36.3845 465.967 35.9148C466.573 35.4413 467.3 35.2045 468.148 35.2045C468.997 35.2045 469.722 35.4413 470.325 35.9148C470.931 36.3845 471.393 37.0663 471.711 37.9602C472.033 38.8504 472.194 39.9242 472.194 41.1818C472.194 42.447 472.035 43.5265 471.717 44.4205C471.398 45.3106 470.938 45.9905 470.336 46.4602C469.734 46.9261 469.004 47.1591 468.148 47.1591ZM468.148 45.9091C468.997 45.9091 469.656 45.5 470.126 44.6818C470.595 43.8636 470.83 42.697 470.83 41.1818C470.83 40.1742 470.722 39.3163 470.506 38.608C470.294 37.8996 469.987 37.3598 469.586 36.9886C469.188 36.6174 468.709 36.4318 468.148 36.4318C467.308 36.4318 466.65 36.8466 466.177 37.6761C465.703 38.5019 465.467 39.6705 465.467 41.1818C465.467 42.1894 465.573 43.0455 465.785 43.75C465.997 44.4545 466.302 44.9905 466.7 45.358C467.101 45.7254 467.584 45.9091 468.148 45.9091ZM474.947 47.0909C474.666 47.0909 474.426 46.9905 474.225 46.7898C474.024 46.589 473.924 46.3485 473.924 46.0682C473.924 45.7879 474.024 45.5473 474.225 45.3466C474.426 45.1458 474.666 45.0455 474.947 45.0455C475.227 45.0455 475.468 45.1458 475.668 45.3466C475.869 45.5473 475.969 45.7879 475.969 46.0682C475.969 46.2538 475.922 46.4242 475.827 46.5795C475.737 46.7348 475.613 46.8598 475.458 46.9545C475.307 47.0455 475.136 47.0909 474.947 47.0909ZM481.742 47.1591C480.886 47.1591 480.157 46.9261 479.555 46.4602C478.952 45.9905 478.492 45.3106 478.174 44.4205C477.856 43.5265 477.697 42.447 477.697 41.1818C477.697 39.9242 477.856 38.8504 478.174 37.9602C478.496 37.0663 478.958 36.3845 479.56 35.9148C480.166 35.4413 480.894 35.2045 481.742 35.2045C482.591 35.2045 483.316 35.4413 483.918 35.9148C484.524 36.3845 484.987 37.0663 485.305 37.9602C485.627 38.8504 485.788 39.9242 485.788 41.1818C485.788 42.447 485.629 43.5265 485.31 44.4205C484.992 45.3106 484.532 45.9905 483.93 46.4602C483.327 46.9261 482.598 47.1591 481.742 47.1591ZM481.742 45.9091C482.591 45.9091 483.25 45.5 483.719 44.6818C484.189 43.8636 484.424 42.697 484.424 41.1818C484.424 40.1742 484.316 39.3163 484.1 38.608C483.888 37.8996 483.581 37.3598 483.18 36.9886C482.782 36.6174 482.303 36.4318 481.742 36.4318C480.901 36.4318 480.244 36.8466 479.771 37.6761C479.297 38.5019 479.06 39.6705 479.06 41.1818C479.06 42.1894 479.166 43.0455 479.379 43.75C479.591 44.4545 479.896 44.9905 480.293 45.358C480.695 45.7254 481.178 45.9091 481.742 45.9091ZM492.651 47V35.3636H494.06V40.5455H500.265V35.3636H501.674V47H500.265V41.7955H494.06V47H492.651ZM507.859 47.1818C507.071 47.1818 506.379 46.9943 505.785 46.6193C505.194 46.2443 504.732 45.7197 504.398 45.0455C504.069 44.3712 503.904 43.5833 503.904 42.6818C503.904 41.7727 504.069 40.9792 504.398 40.3011C504.732 39.6231 505.194 39.0966 505.785 38.7216C506.379 38.3466 507.071 38.1591 507.859 38.1591C508.647 38.1591 509.336 38.3466 509.927 38.7216C510.522 39.0966 510.984 39.6231 511.313 40.3011C511.647 40.9792 511.813 41.7727 511.813 42.6818C511.813 43.5833 511.647 44.3712 511.313 45.0455C510.984 45.7197 510.522 46.2443 509.927 46.6193C509.336 46.9943 508.647 47.1818 507.859 47.1818ZM507.859 45.9773C508.457 45.9773 508.95 45.8239 509.336 45.517C509.722 45.2102 510.008 44.8068 510.194 44.3068C510.379 43.8068 510.472 43.2652 510.472 42.6818C510.472 42.0985 510.379 41.5549 510.194 41.0511C510.008 40.5473 509.722 40.1402 509.336 39.8295C508.95 39.5189 508.457 39.3636 507.859 39.3636C507.26 39.3636 506.768 39.5189 506.381 39.8295C505.995 40.1402 505.709 40.5473 505.523 41.0511C505.338 41.5549 505.245 42.0985 505.245 42.6818C505.245 43.2652 505.338 43.8068 505.523 44.3068C505.709 44.8068 505.995 45.2102 506.381 45.517C506.768 45.8239 507.26 45.9773 507.859 45.9773ZM513.86 47V38.2727H515.156V39.6364H515.269C515.451 39.1705 515.745 38.8087 516.15 38.5511C516.555 38.2898 517.042 38.1591 517.61 38.1591C518.186 38.1591 518.665 38.2898 519.048 38.5511C519.434 38.8087 519.735 39.1705 519.951 39.6364H520.042C520.265 39.1856 520.601 38.8277 521.048 38.5625C521.495 38.2936 522.031 38.1591 522.656 38.1591C523.436 38.1591 524.074 38.4034 524.57 38.892C525.067 39.3769 525.315 40.1326 525.315 41.1591V47H523.974V41.1591C523.974 40.5152 523.798 40.0549 523.445 39.7784C523.093 39.5019 522.678 39.3636 522.201 39.3636C521.587 39.3636 521.112 39.5492 520.775 39.9205C520.438 40.2879 520.269 40.7538 520.269 41.3182V47H518.906V41.0227C518.906 40.5265 518.745 40.1269 518.423 39.8239C518.101 39.517 517.686 39.3636 517.178 39.3636C516.83 39.3636 516.504 39.4564 516.201 39.642C515.902 39.8277 515.659 40.0852 515.474 40.4148C515.292 40.7405 515.201 41.1174 515.201 41.5455V47H513.86ZM531.425 47.1818C530.585 47.1818 529.859 46.9962 529.249 46.625C528.643 46.25 528.175 45.7273 527.846 45.0568C527.52 44.3826 527.357 43.5985 527.357 42.7045C527.357 41.8106 527.52 41.0227 527.846 40.3409C528.175 39.6553 528.634 39.1212 529.221 38.7386C529.812 38.3523 530.501 38.1591 531.289 38.1591C531.744 38.1591 532.192 38.2348 532.636 38.3864C533.079 38.5379 533.482 38.7841 533.846 39.125C534.21 39.4621 534.499 39.9091 534.715 40.4659C534.931 41.0227 535.039 41.7083 535.039 42.5227V43.0909H528.312V41.9318H533.675C533.675 41.4394 533.577 41 533.38 40.6136C533.187 40.2273 532.91 39.9223 532.55 39.6989C532.194 39.4754 531.774 39.3636 531.289 39.3636C530.755 39.3636 530.293 39.4962 529.903 39.7614C529.516 40.0227 529.219 40.3636 529.011 40.7841C528.802 41.2045 528.698 41.6553 528.698 42.1364V42.9091C528.698 43.5682 528.812 44.1269 529.039 44.5852C529.27 45.0398 529.59 45.3864 529.999 45.625C530.408 45.8598 530.884 45.9773 531.425 45.9773C531.778 45.9773 532.096 45.928 532.38 45.8295C532.668 45.7273 532.916 45.5758 533.124 45.375C533.333 45.1705 533.494 44.9167 533.607 44.6136L534.903 44.9773C534.766 45.4167 534.537 45.803 534.215 46.1364C533.893 46.4659 533.496 46.7235 533.022 46.9091C532.549 47.0909 532.016 47.1818 531.425 47.1818Z" fill="black"/>
<rect x="51.5" y="114.5" width="119" height="37" fill="#D9D9D9" stroke="black" stroke-width="3"/>
<path d="M81.9219 139.159C81.0658 139.159 80.3366 138.926 79.7344 138.46C79.1321 137.991 78.6719 137.311 78.3537 136.42C78.0355 135.527 77.8764 134.447 77.8764 133.182C77.8764 131.924 78.0355 130.85 78.3537 129.96C78.6757 129.066 79.1378 128.384 79.7401 127.915C80.3461 127.441 81.0734 127.205 81.9219 127.205C82.7704 127.205 83.4957 127.441 84.098 127.915C84.7041 128.384 85.1662 129.066 85.4844 129.96C85.8063 130.85 85.9673 131.924 85.9673 133.182C85.9673 134.447 85.8082 135.527 85.4901 136.42C85.1719 137.311 84.7116 137.991 84.1094 138.46C83.5071 138.926 82.7779 139.159 81.9219 139.159ZM81.9219 137.909C82.7704 137.909 83.4295 137.5 83.8991 136.682C84.3688 135.864 84.6037 134.697 84.6037 133.182C84.6037 132.174 84.4957 131.316 84.2798 130.608C84.0677 129.9 83.7609 129.36 83.3594 128.989C82.9616 128.617 82.4825 128.432 81.9219 128.432C81.081 128.432 80.4238 128.847 79.9503 129.676C79.4768 130.502 79.2401 131.67 79.2401 133.182C79.2401 134.189 79.3461 135.045 79.5582 135.75C79.7704 136.455 80.0753 136.991 80.473 137.358C80.8745 137.725 81.3575 137.909 81.9219 137.909ZM88.7202 139.091C88.4399 139.091 88.1993 138.991 87.9986 138.79C87.7978 138.589 87.6974 138.348 87.6974 138.068C87.6974 137.788 87.7978 137.547 87.9986 137.347C88.1993 137.146 88.4399 137.045 88.7202 137.045C89.0005 137.045 89.241 137.146 89.4418 137.347C89.6425 137.547 89.7429 137.788 89.7429 138.068C89.7429 138.254 89.6955 138.424 89.6009 138.58C89.5099 138.735 89.3868 138.86 89.2315 138.955C89.08 139.045 88.9096 139.091 88.7202 139.091ZM94.8267 127.364V139H93.4176V128.841H93.3494L90.5085 130.727V129.295L93.4176 127.364H94.8267ZM105.264 139.205C104.711 139.205 104.209 139.1 103.759 138.892C103.308 138.68 102.95 138.375 102.685 137.977C102.42 137.576 102.287 137.091 102.287 136.523C102.287 136.023 102.385 135.617 102.582 135.307C102.779 134.992 103.043 134.746 103.372 134.568C103.702 134.39 104.065 134.258 104.463 134.17C104.865 134.08 105.268 134.008 105.673 133.955C106.204 133.886 106.634 133.835 106.963 133.801C107.296 133.763 107.539 133.701 107.69 133.614C107.846 133.527 107.923 133.375 107.923 133.159V133.114C107.923 132.553 107.77 132.117 107.463 131.807C107.16 131.496 106.7 131.341 106.082 131.341C105.442 131.341 104.94 131.481 104.577 131.761C104.213 132.042 103.957 132.341 103.81 132.659L102.537 132.205C102.764 131.674 103.067 131.261 103.446 130.966C103.829 130.667 104.245 130.458 104.696 130.341C105.151 130.22 105.598 130.159 106.037 130.159C106.317 130.159 106.639 130.193 107.003 130.261C107.37 130.326 107.724 130.46 108.065 130.665C108.41 130.869 108.696 131.178 108.923 131.591C109.151 132.004 109.264 132.557 109.264 133.25V139H107.923V137.818H107.855C107.764 138.008 107.613 138.21 107.401 138.426C107.188 138.642 106.906 138.826 106.554 138.977C106.202 139.129 105.772 139.205 105.264 139.205ZM105.469 138C105.999 138 106.446 137.896 106.81 137.688C107.177 137.479 107.454 137.21 107.639 136.881C107.829 136.551 107.923 136.205 107.923 135.841V134.614C107.866 134.682 107.741 134.744 107.548 134.801C107.359 134.854 107.139 134.902 106.889 134.943C106.643 134.981 106.402 135.015 106.168 135.045C105.937 135.072 105.749 135.095 105.605 135.114C105.257 135.159 104.931 135.233 104.628 135.335C104.329 135.434 104.086 135.583 103.901 135.784C103.719 135.981 103.628 136.25 103.628 136.591C103.628 137.057 103.8 137.409 104.145 137.648C104.493 137.883 104.935 138 105.469 138ZM111.893 139V127.364H113.234V131.659H113.348C113.446 131.508 113.583 131.314 113.757 131.08C113.935 130.841 114.189 130.629 114.518 130.443C114.852 130.254 115.303 130.159 115.871 130.159C116.606 130.159 117.253 130.343 117.814 130.71C118.375 131.078 118.812 131.598 119.126 132.273C119.441 132.947 119.598 133.742 119.598 134.659C119.598 135.583 119.441 136.384 119.126 137.062C118.812 137.737 118.376 138.259 117.82 138.631C117.263 138.998 116.621 139.182 115.893 139.182C115.333 139.182 114.884 139.089 114.547 138.903C114.21 138.714 113.95 138.5 113.768 138.261C113.587 138.019 113.446 137.818 113.348 137.659H113.189V139H111.893ZM113.212 134.636C113.212 135.295 113.308 135.877 113.501 136.381C113.695 136.881 113.977 137.273 114.348 137.557C114.719 137.837 115.174 137.977 115.712 137.977C116.272 137.977 116.74 137.83 117.115 137.534C117.494 137.235 117.778 136.833 117.967 136.33C118.161 135.822 118.257 135.258 118.257 134.636C118.257 134.023 118.162 133.47 117.973 132.977C117.787 132.481 117.505 132.089 117.126 131.801C116.751 131.509 116.28 131.364 115.712 131.364C115.166 131.364 114.708 131.502 114.337 131.778C113.965 132.051 113.685 132.434 113.496 132.926C113.306 133.415 113.212 133.985 113.212 134.636ZM125.195 139.182C124.407 139.182 123.715 138.994 123.121 138.619C122.53 138.244 122.068 137.72 121.734 137.045C121.405 136.371 121.24 135.583 121.24 134.682C121.24 133.773 121.405 132.979 121.734 132.301C122.068 131.623 122.53 131.097 123.121 130.722C123.715 130.347 124.407 130.159 125.195 130.159C125.982 130.159 126.672 130.347 127.263 130.722C127.857 131.097 128.32 131.623 128.649 132.301C128.982 132.979 129.149 133.773 129.149 134.682C129.149 135.583 128.982 136.371 128.649 137.045C128.32 137.72 127.857 138.244 127.263 138.619C126.672 138.994 125.982 139.182 125.195 139.182ZM125.195 137.977C125.793 137.977 126.286 137.824 126.672 137.517C127.058 137.21 127.344 136.807 127.53 136.307C127.715 135.807 127.808 135.265 127.808 134.682C127.808 134.098 127.715 133.555 127.53 133.051C127.344 132.547 127.058 132.14 126.672 131.83C126.286 131.519 125.793 131.364 125.195 131.364C124.596 131.364 124.104 131.519 123.717 131.83C123.331 132.14 123.045 132.547 122.859 133.051C122.674 133.555 122.581 134.098 122.581 134.682C122.581 135.265 122.674 135.807 122.859 136.307C123.045 136.807 123.331 137.21 123.717 137.517C124.104 137.824 124.596 137.977 125.195 137.977ZM136.696 135.432V130.273H138.037V139H136.696V137.523H136.605C136.401 137.966 136.082 138.343 135.651 138.653C135.219 138.96 134.673 139.114 134.014 139.114C133.469 139.114 132.984 138.994 132.56 138.756C132.135 138.513 131.802 138.15 131.56 137.665C131.317 137.176 131.196 136.561 131.196 135.818V130.273H132.537V135.727C132.537 136.364 132.715 136.871 133.071 137.25C133.431 137.629 133.889 137.818 134.446 137.818C134.779 137.818 135.118 137.733 135.463 137.562C135.812 137.392 136.103 137.131 136.338 136.778C136.577 136.426 136.696 135.977 136.696 135.432ZM144.288 130.273V131.409H139.766V130.273H144.288ZM141.084 128.182H142.425V136.5C142.425 136.879 142.48 137.163 142.589 137.352C142.703 137.538 142.847 137.663 143.021 137.727C143.199 137.788 143.387 137.818 143.584 137.818C143.732 137.818 143.853 137.811 143.947 137.795C144.042 137.777 144.118 137.761 144.175 137.75L144.447 138.955C144.357 138.989 144.23 139.023 144.067 139.057C143.904 139.095 143.697 139.114 143.447 139.114C143.069 139.114 142.697 139.032 142.334 138.869C141.974 138.706 141.675 138.458 141.436 138.125C141.201 137.792 141.084 137.371 141.084 136.864V128.182Z" fill="black"/>
<rect x="242.5" y="114.5" width="122" height="37" fill="#D9D9D9" stroke="black" stroke-width="3"/>
<path d="M257.359 139.159C256.503 139.159 255.774 138.926 255.172 138.46C254.57 137.991 254.109 137.311 253.791 136.42C253.473 135.527 253.314 134.447 253.314 133.182C253.314 131.924 253.473 130.85 253.791 129.96C254.113 129.066 254.575 128.384 255.178 127.915C255.784 127.441 256.511 127.205 257.359 127.205C258.208 127.205 258.933 127.441 259.536 127.915C260.142 128.384 260.604 129.066 260.922 129.96C261.244 130.85 261.405 131.924 261.405 133.182C261.405 134.447 261.246 135.527 260.928 136.42C260.609 137.311 260.149 137.991 259.547 138.46C258.945 138.926 258.215 139.159 257.359 139.159ZM257.359 137.909C258.208 137.909 258.867 137.5 259.337 136.682C259.806 135.864 260.041 134.697 260.041 133.182C260.041 132.174 259.933 131.316 259.717 130.608C259.505 129.9 259.198 129.36 258.797 128.989C258.399 128.617 257.92 128.432 257.359 128.432C256.518 128.432 255.861 128.847 255.388 129.676C254.914 130.502 254.678 131.67 254.678 133.182C254.678 134.189 254.784 135.045 254.996 135.75C255.208 136.455 255.513 136.991 255.911 137.358C256.312 137.725 256.795 137.909 257.359 137.909ZM264.158 139.091C263.877 139.091 263.637 138.991 263.436 138.79C263.235 138.589 263.135 138.348 263.135 138.068C263.135 137.788 263.235 137.547 263.436 137.347C263.637 137.146 263.877 137.045 264.158 137.045C264.438 137.045 264.679 137.146 264.879 137.347C265.08 137.547 265.18 137.788 265.18 138.068C265.18 138.254 265.133 138.424 265.038 138.58C264.947 138.735 264.824 138.86 264.669 138.955C264.518 139.045 264.347 139.091 264.158 139.091ZM267.564 139V137.977L271.405 133.773C271.856 133.28 272.227 132.852 272.518 132.489C272.81 132.121 273.026 131.777 273.166 131.455C273.31 131.129 273.382 130.788 273.382 130.432C273.382 130.023 273.284 129.669 273.087 129.369C272.893 129.07 272.628 128.839 272.291 128.676C271.954 128.513 271.575 128.432 271.155 128.432C270.708 128.432 270.318 128.525 269.984 128.71C269.655 128.892 269.399 129.148 269.217 129.477C269.039 129.807 268.95 130.193 268.95 130.636H267.609C267.609 129.955 267.767 129.356 268.081 128.841C268.395 128.326 268.823 127.924 269.365 127.636C269.911 127.348 270.522 127.205 271.2 127.205C271.882 127.205 272.486 127.348 273.013 127.636C273.539 127.924 273.952 128.312 274.251 128.801C274.551 129.29 274.7 129.833 274.7 130.432C274.7 130.86 274.623 131.278 274.467 131.688C274.316 132.093 274.051 132.545 273.672 133.045C273.297 133.542 272.776 134.148 272.109 134.864L269.496 137.659V137.75H274.905V139H267.564ZM281.774 139V130.273H283.07V131.636H283.183C283.365 131.17 283.659 130.809 284.064 130.551C284.469 130.29 284.956 130.159 285.524 130.159C286.1 130.159 286.579 130.29 286.962 130.551C287.348 130.809 287.649 131.17 287.865 131.636H287.956C288.179 131.186 288.515 130.828 288.962 130.562C289.409 130.294 289.945 130.159 290.57 130.159C291.35 130.159 291.988 130.403 292.484 130.892C292.981 131.377 293.229 132.133 293.229 133.159V139H291.888V133.159C291.888 132.515 291.712 132.055 291.359 131.778C291.007 131.502 290.592 131.364 290.115 131.364C289.501 131.364 289.026 131.549 288.689 131.92C288.352 132.288 288.183 132.754 288.183 133.318V139H286.82V133.023C286.82 132.527 286.659 132.127 286.337 131.824C286.015 131.517 285.6 131.364 285.092 131.364C284.744 131.364 284.418 131.456 284.115 131.642C283.816 131.828 283.573 132.085 283.388 132.415C283.206 132.741 283.115 133.117 283.115 133.545V139H281.774ZM299.339 139.182C298.499 139.182 297.773 138.996 297.163 138.625C296.557 138.25 296.089 137.727 295.76 137.057C295.434 136.383 295.271 135.598 295.271 134.705C295.271 133.811 295.434 133.023 295.76 132.341C296.089 131.655 296.548 131.121 297.135 130.739C297.726 130.352 298.415 130.159 299.203 130.159C299.658 130.159 300.107 130.235 300.55 130.386C300.993 130.538 301.396 130.784 301.76 131.125C302.124 131.462 302.413 131.909 302.629 132.466C302.845 133.023 302.953 133.708 302.953 134.523V135.091H296.226V133.932H301.589C301.589 133.439 301.491 133 301.294 132.614C301.101 132.227 300.824 131.922 300.464 131.699C300.108 131.475 299.688 131.364 299.203 131.364C298.669 131.364 298.207 131.496 297.817 131.761C297.43 132.023 297.133 132.364 296.925 132.784C296.716 133.205 296.612 133.655 296.612 134.136V134.909C296.612 135.568 296.726 136.127 296.953 136.585C297.184 137.04 297.504 137.386 297.913 137.625C298.322 137.86 298.798 137.977 299.339 137.977C299.692 137.977 300.01 137.928 300.294 137.83C300.582 137.727 300.83 137.576 301.038 137.375C301.247 137.17 301.408 136.917 301.521 136.614L302.817 136.977C302.68 137.417 302.451 137.803 302.129 138.136C301.807 138.466 301.41 138.723 300.936 138.909C300.463 139.091 299.93 139.182 299.339 139.182ZM304.993 139V130.273H306.288V131.636H306.402C306.584 131.17 306.877 130.809 307.283 130.551C307.688 130.29 308.175 130.159 308.743 130.159C309.319 130.159 309.798 130.29 310.18 130.551C310.567 130.809 310.868 131.17 311.084 131.636H311.175C311.398 131.186 311.733 130.828 312.18 130.562C312.627 130.294 313.163 130.159 313.788 130.159C314.569 130.159 315.207 130.403 315.703 130.892C316.199 131.377 316.447 132.133 316.447 133.159V139H315.107V133.159C315.107 132.515 314.93 132.055 314.578 131.778C314.226 131.502 313.811 131.364 313.334 131.364C312.72 131.364 312.245 131.549 311.908 131.92C311.571 132.288 311.402 132.754 311.402 133.318V139H310.038V133.023C310.038 132.527 309.877 132.127 309.555 131.824C309.233 131.517 308.819 131.364 308.311 131.364C307.963 131.364 307.637 131.456 307.334 131.642C307.035 131.828 306.792 132.085 306.607 132.415C306.425 132.741 306.334 133.117 306.334 133.545V139H304.993ZM322.445 139.182C321.657 139.182 320.965 138.994 320.371 138.619C319.78 138.244 319.318 137.72 318.984 137.045C318.655 136.371 318.49 135.583 318.49 134.682C318.49 133.773 318.655 132.979 318.984 132.301C319.318 131.623 319.78 131.097 320.371 130.722C320.965 130.347 321.657 130.159 322.445 130.159C323.232 130.159 323.922 130.347 324.513 130.722C325.107 131.097 325.57 131.623 325.899 132.301C326.232 132.979 326.399 133.773 326.399 134.682C326.399 135.583 326.232 136.371 325.899 137.045C325.57 137.72 325.107 138.244 324.513 138.619C323.922 138.994 323.232 139.182 322.445 139.182ZM322.445 137.977C323.043 137.977 323.536 137.824 323.922 137.517C324.308 137.21 324.594 136.807 324.78 136.307C324.965 135.807 325.058 135.265 325.058 134.682C325.058 134.098 324.965 133.555 324.78 133.051C324.594 132.547 324.308 132.14 323.922 131.83C323.536 131.519 323.043 131.364 322.445 131.364C321.846 131.364 321.354 131.519 320.967 131.83C320.581 132.14 320.295 132.547 320.109 133.051C319.924 133.555 319.831 134.098 319.831 134.682C319.831 135.265 319.924 135.807 320.109 136.307C320.295 136.807 320.581 137.21 320.967 137.517C321.354 137.824 321.846 137.977 322.445 137.977ZM328.446 139V130.273H329.741V131.591H329.832C329.991 131.159 330.279 130.809 330.696 130.54C331.113 130.271 331.582 130.136 332.105 130.136C332.204 130.136 332.327 130.138 332.474 130.142C332.622 130.146 332.734 130.152 332.81 130.159V131.523C332.764 131.511 332.66 131.494 332.497 131.472C332.338 131.445 332.17 131.432 331.991 131.432C331.567 131.432 331.188 131.521 330.855 131.699C330.526 131.873 330.264 132.116 330.071 132.426C329.882 132.733 329.787 133.083 329.787 133.477V139H328.446ZM334.399 139V130.273H335.74V139H334.399ZM335.081 128.818C334.82 128.818 334.594 128.729 334.405 128.551C334.219 128.373 334.126 128.159 334.126 127.909C334.126 127.659 334.219 127.445 334.405 127.267C334.594 127.089 334.82 127 335.081 127C335.342 127 335.566 127.089 335.751 127.267C335.941 127.445 336.036 127.659 336.036 127.909C336.036 128.159 335.941 128.373 335.751 128.551C335.566 128.729 335.342 128.818 335.081 128.818ZM341.855 139.182C341.014 139.182 340.289 138.996 339.679 138.625C339.073 138.25 338.605 137.727 338.276 137.057C337.95 136.383 337.787 135.598 337.787 134.705C337.787 133.811 337.95 133.023 338.276 132.341C338.605 131.655 339.063 131.121 339.651 130.739C340.241 130.352 340.931 130.159 341.719 130.159C342.173 130.159 342.622 130.235 343.065 130.386C343.509 130.538 343.912 130.784 344.276 131.125C344.639 131.462 344.929 131.909 345.145 132.466C345.361 133.023 345.469 133.708 345.469 134.523V135.091H338.741V133.932H344.105C344.105 133.439 344.007 133 343.81 132.614C343.616 132.227 343.34 131.922 342.98 131.699C342.624 131.475 342.204 131.364 341.719 131.364C341.185 131.364 340.723 131.496 340.332 131.761C339.946 132.023 339.649 132.364 339.44 132.784C339.232 133.205 339.128 133.655 339.128 134.136V134.909C339.128 135.568 339.241 136.127 339.469 136.585C339.7 137.04 340.02 137.386 340.429 137.625C340.838 137.86 341.313 137.977 341.855 137.977C342.207 137.977 342.526 137.928 342.81 137.83C343.098 137.727 343.346 137.576 343.554 137.375C343.762 137.17 343.923 136.917 344.037 136.614L345.332 136.977C345.196 137.417 344.967 137.803 344.645 138.136C344.323 138.466 343.925 138.723 343.452 138.909C342.978 139.091 342.446 139.182 341.855 139.182ZM353.69 132.227L352.486 132.568C352.41 132.367 352.298 132.172 352.151 131.983C352.007 131.79 351.81 131.631 351.56 131.506C351.31 131.381 350.99 131.318 350.599 131.318C350.065 131.318 349.62 131.441 349.264 131.688C348.912 131.93 348.736 132.239 348.736 132.614C348.736 132.947 348.857 133.21 349.099 133.403C349.342 133.597 349.721 133.758 350.236 133.886L351.531 134.205C352.312 134.394 352.893 134.684 353.276 135.074C353.658 135.46 353.849 135.958 353.849 136.568C353.849 137.068 353.705 137.515 353.418 137.909C353.134 138.303 352.736 138.614 352.224 138.841C351.713 139.068 351.118 139.182 350.44 139.182C349.55 139.182 348.813 138.989 348.23 138.602C347.647 138.216 347.277 137.652 347.122 136.909L348.395 136.591C348.516 137.061 348.745 137.413 349.082 137.648C349.423 137.883 349.868 138 350.418 138C351.043 138 351.539 137.867 351.906 137.602C352.277 137.333 352.463 137.011 352.463 136.636C352.463 136.333 352.357 136.08 352.145 135.875C351.933 135.667 351.607 135.511 351.168 135.409L349.713 135.068C348.914 134.879 348.327 134.585 347.952 134.188C347.58 133.786 347.395 133.284 347.395 132.682C347.395 132.189 347.533 131.754 347.81 131.375C348.09 130.996 348.471 130.699 348.952 130.483C349.437 130.267 349.986 130.159 350.599 130.159C351.463 130.159 352.141 130.348 352.634 130.727C353.13 131.106 353.482 131.606 353.69 132.227Z" fill="black"/>
<rect x="421.5" y="114.5" width="157" height="37" fill="#D9D9D9" stroke="black" stroke-width="3"/>
<path d="M444.109 139.159C443.253 139.159 442.524 138.926 441.922 138.46C441.32 137.991 440.859 137.311 440.541 136.42C440.223 135.527 440.064 134.447 440.064 133.182C440.064 131.924 440.223 130.85 440.541 129.96C440.863 129.066 441.325 128.384 441.928 127.915C442.534 127.441 443.261 127.205 444.109 127.205C444.958 127.205 445.683 127.441 446.286 127.915C446.892 128.384 447.354 129.066 447.672 129.96C447.994 130.85 448.155 131.924 448.155 133.182C448.155 134.447 447.996 135.527 447.678 136.42C447.359 137.311 446.899 137.991 446.297 138.46C445.695 138.926 444.965 139.159 444.109 139.159ZM444.109 137.909C444.958 137.909 445.617 137.5 446.087 136.682C446.556 135.864 446.791 134.697 446.791 133.182C446.791 132.174 446.683 131.316 446.467 130.608C446.255 129.9 445.948 129.36 445.547 128.989C445.149 128.617 444.67 128.432 444.109 128.432C443.268 128.432 442.611 128.847 442.138 129.676C441.664 130.502 441.428 131.67 441.428 133.182C441.428 134.189 441.534 135.045 441.746 135.75C441.958 136.455 442.263 136.991 442.661 137.358C443.062 137.725 443.545 137.909 444.109 137.909ZM450.908 139.091C450.627 139.091 450.387 138.991 450.186 138.79C449.985 138.589 449.885 138.348 449.885 138.068C449.885 137.788 449.985 137.547 450.186 137.347C450.387 137.146 450.627 137.045 450.908 137.045C451.188 137.045 451.429 137.146 451.629 137.347C451.83 137.547 451.93 137.788 451.93 138.068C451.93 138.254 451.883 138.424 451.788 138.58C451.697 138.735 451.574 138.86 451.419 138.955C451.268 139.045 451.097 139.091 450.908 139.091ZM457.808 139.159C457.058 139.159 456.39 139.03 455.803 138.773C455.219 138.515 454.755 138.157 454.411 137.699C454.07 137.237 453.884 136.701 453.854 136.091H455.286C455.316 136.466 455.445 136.79 455.672 137.062C455.899 137.331 456.196 137.54 456.564 137.688C456.931 137.835 457.339 137.909 457.786 137.909C458.286 137.909 458.729 137.822 459.115 137.648C459.501 137.473 459.804 137.231 460.024 136.92C460.244 136.61 460.354 136.25 460.354 135.841C460.354 135.413 460.248 135.036 460.036 134.71C459.823 134.381 459.513 134.123 459.104 133.938C458.695 133.752 458.195 133.659 457.604 133.659H456.672V132.409H457.604C458.066 132.409 458.471 132.326 458.82 132.159C459.172 131.992 459.446 131.758 459.643 131.455C459.844 131.152 459.945 130.795 459.945 130.386C459.945 129.992 459.857 129.65 459.683 129.358C459.509 129.066 459.263 128.839 458.945 128.676C458.63 128.513 458.259 128.432 457.831 128.432C457.429 128.432 457.051 128.506 456.695 128.653C456.342 128.797 456.054 129.008 455.831 129.284C455.607 129.557 455.486 129.886 455.467 130.273H454.104C454.126 129.663 454.31 129.129 454.655 128.67C455 128.208 455.45 127.848 456.007 127.591C456.568 127.333 457.183 127.205 457.854 127.205C458.573 127.205 459.191 127.35 459.706 127.642C460.221 127.93 460.617 128.311 460.893 128.784C461.17 129.258 461.308 129.769 461.308 130.318C461.308 130.973 461.136 131.532 460.791 131.994C460.45 132.456 459.986 132.777 459.399 132.955V133.045C460.134 133.167 460.708 133.479 461.121 133.983C461.534 134.483 461.74 135.102 461.74 135.841C461.74 136.473 461.568 137.042 461.223 137.545C460.882 138.045 460.416 138.439 459.825 138.727C459.234 139.015 458.562 139.159 457.808 139.159ZM468.587 142.273V130.273H469.882V131.659H470.041C470.14 131.508 470.276 131.314 470.45 131.08C470.628 130.841 470.882 130.629 471.212 130.443C471.545 130.254 471.996 130.159 472.564 130.159C473.299 130.159 473.946 130.343 474.507 130.71C475.068 131.078 475.505 131.598 475.82 132.273C476.134 132.947 476.291 133.742 476.291 134.659C476.291 135.583 476.134 136.384 475.82 137.062C475.505 137.737 475.07 138.259 474.513 138.631C473.956 138.998 473.314 139.182 472.587 139.182C472.026 139.182 471.577 139.089 471.24 138.903C470.903 138.714 470.643 138.5 470.462 138.261C470.28 138.019 470.14 137.818 470.041 137.659H469.928V142.273H468.587ZM469.905 134.636C469.905 135.295 470.001 135.877 470.195 136.381C470.388 136.881 470.67 137.273 471.041 137.557C471.412 137.837 471.867 137.977 472.405 137.977C472.965 137.977 473.433 137.83 473.808 137.534C474.187 137.235 474.471 136.833 474.661 136.33C474.854 135.822 474.95 135.258 474.95 134.636C474.95 134.023 474.856 133.47 474.666 132.977C474.481 132.481 474.198 132.089 473.82 131.801C473.445 131.509 472.973 131.364 472.405 131.364C471.859 131.364 471.401 131.502 471.03 131.778C470.659 132.051 470.378 132.434 470.189 132.926C470 133.415 469.905 133.985 469.905 134.636ZM479.678 133.75V139H478.337V127.364H479.678V131.636H479.791C479.996 131.186 480.303 130.828 480.712 130.562C481.125 130.294 481.674 130.159 482.359 130.159C482.954 130.159 483.475 130.278 483.922 130.517C484.369 130.752 484.715 131.114 484.962 131.602C485.212 132.087 485.337 132.705 485.337 133.455V139H483.996V133.545C483.996 132.852 483.816 132.316 483.456 131.938C483.1 131.555 482.606 131.364 481.973 131.364C481.534 131.364 481.14 131.456 480.791 131.642C480.446 131.828 480.174 132.098 479.973 132.455C479.776 132.811 479.678 133.242 479.678 133.75ZM491.335 139.182C490.547 139.182 489.856 138.994 489.261 138.619C488.67 138.244 488.208 137.72 487.875 137.045C487.545 136.371 487.381 135.583 487.381 134.682C487.381 133.773 487.545 132.979 487.875 132.301C488.208 131.623 488.67 131.097 489.261 130.722C489.856 130.347 490.547 130.159 491.335 130.159C492.123 130.159 492.813 130.347 493.403 130.722C493.998 131.097 494.46 131.623 494.79 132.301C495.123 132.979 495.29 133.773 495.29 134.682C495.29 135.583 495.123 136.371 494.79 137.045C494.46 137.72 493.998 138.244 493.403 138.619C492.813 138.994 492.123 139.182 491.335 139.182ZM491.335 137.977C491.934 137.977 492.426 137.824 492.812 137.517C493.199 137.21 493.485 136.807 493.67 136.307C493.856 135.807 493.949 135.265 493.949 134.682C493.949 134.098 493.856 133.555 493.67 133.051C493.485 132.547 493.199 132.14 492.812 131.83C492.426 131.519 491.934 131.364 491.335 131.364C490.737 131.364 490.244 131.519 489.858 131.83C489.472 132.14 489.186 132.547 489 133.051C488.814 133.555 488.722 134.098 488.722 134.682C488.722 135.265 488.814 135.807 489 136.307C489.186 136.807 489.472 137.21 489.858 137.517C490.244 137.824 490.737 137.977 491.335 137.977ZM501.132 130.273V131.409H496.609V130.273H501.132ZM497.928 128.182H499.268V136.5C499.268 136.879 499.323 137.163 499.433 137.352C499.547 137.538 499.691 137.663 499.865 137.727C500.043 137.788 500.231 137.818 500.428 137.818C500.575 137.818 500.696 137.811 500.791 137.795C500.886 137.777 500.962 137.761 501.018 137.75L501.291 138.955C501.2 138.989 501.073 139.023 500.911 139.057C500.748 139.095 500.541 139.114 500.291 139.114C499.912 139.114 499.541 139.032 499.178 138.869C498.818 138.706 498.518 138.458 498.28 138.125C498.045 137.792 497.928 137.371 497.928 136.864V128.182ZM506.601 139.182C505.813 139.182 505.122 138.994 504.527 138.619C503.936 138.244 503.474 137.72 503.141 137.045C502.811 136.371 502.646 135.583 502.646 134.682C502.646 133.773 502.811 132.979 503.141 132.301C503.474 131.623 503.936 131.097 504.527 130.722C505.122 130.347 505.813 130.159 506.601 130.159C507.389 130.159 508.078 130.347 508.669 130.722C509.264 131.097 509.726 131.623 510.055 132.301C510.389 132.979 510.555 133.773 510.555 134.682C510.555 135.583 510.389 136.371 510.055 137.045C509.726 137.72 509.264 138.244 508.669 138.619C508.078 138.994 507.389 139.182 506.601 139.182ZM506.601 137.977C507.199 137.977 507.692 137.824 508.078 137.517C508.464 137.21 508.75 136.807 508.936 136.307C509.122 135.807 509.214 135.265 509.214 134.682C509.214 134.098 509.122 133.555 508.936 133.051C508.75 132.547 508.464 132.14 508.078 131.83C507.692 131.519 507.199 131.364 506.601 131.364C506.002 131.364 505.51 131.519 505.124 131.83C504.737 132.14 504.451 132.547 504.266 133.051C504.08 133.555 503.987 134.098 503.987 134.682C503.987 135.265 504.08 135.807 504.266 136.307C504.451 136.807 504.737 137.21 505.124 137.517C505.51 137.824 506.002 137.977 506.601 137.977ZM516.125 142.455C515.477 142.455 514.92 142.371 514.455 142.205C513.989 142.042 513.6 141.826 513.29 141.557C512.983 141.292 512.739 141.008 512.557 140.705L513.625 139.955C513.746 140.114 513.9 140.295 514.085 140.5C514.271 140.708 514.525 140.888 514.847 141.04C515.172 141.195 515.598 141.273 516.125 141.273C516.83 141.273 517.411 141.102 517.869 140.761C518.328 140.42 518.557 139.886 518.557 139.159V137.386H518.443C518.345 137.545 518.205 137.742 518.023 137.977C517.845 138.208 517.587 138.415 517.25 138.597C516.917 138.775 516.466 138.864 515.898 138.864C515.193 138.864 514.561 138.697 514 138.364C513.443 138.03 513.002 137.545 512.676 136.909C512.354 136.273 512.193 135.5 512.193 134.591C512.193 133.697 512.35 132.919 512.665 132.256C512.979 131.589 513.417 131.074 513.977 130.71C514.538 130.343 515.186 130.159 515.92 130.159C516.489 130.159 516.939 130.254 517.273 130.443C517.61 130.629 517.867 130.841 518.045 131.08C518.227 131.314 518.367 131.508 518.466 131.659H518.602V130.273H519.898V139.25C519.898 140 519.727 140.61 519.386 141.08C519.049 141.553 518.595 141.9 518.023 142.119C517.455 142.343 516.822 142.455 516.125 142.455ZM516.08 137.659C516.617 137.659 517.072 137.536 517.443 137.29C517.814 137.044 518.097 136.689 518.29 136.227C518.483 135.765 518.58 135.212 518.58 134.568C518.58 133.939 518.485 133.384 518.295 132.903C518.106 132.422 517.826 132.045 517.455 131.773C517.083 131.5 516.625 131.364 516.08 131.364C515.511 131.364 515.038 131.508 514.659 131.795C514.284 132.083 514.002 132.47 513.812 132.955C513.627 133.439 513.534 133.977 513.534 134.568C513.534 135.174 513.629 135.71 513.818 136.176C514.011 136.638 514.295 137.002 514.67 137.267C515.049 137.528 515.519 137.659 516.08 137.659ZM522.352 139V130.273H523.648V131.591H523.739C523.898 131.159 524.186 130.809 524.602 130.54C525.019 130.271 525.489 130.136 526.011 130.136C526.11 130.136 526.233 130.138 526.381 130.142C526.528 130.146 526.64 130.152 526.716 130.159V131.523C526.67 131.511 526.566 131.494 526.403 131.472C526.244 131.445 526.076 131.432 525.898 131.432C525.473 131.432 525.095 131.521 524.761 131.699C524.432 131.873 524.17 132.116 523.977 132.426C523.788 132.733 523.693 133.083 523.693 133.477V139H522.352ZM530.874 139.205C530.321 139.205 529.819 139.1 529.368 138.892C528.917 138.68 528.559 138.375 528.294 137.977C528.029 137.576 527.896 137.091 527.896 136.523C527.896 136.023 527.995 135.617 528.192 135.307C528.389 134.992 528.652 134.746 528.982 134.568C529.311 134.39 529.675 134.258 530.072 134.17C530.474 134.08 530.877 134.008 531.283 133.955C531.813 133.886 532.243 133.835 532.572 133.801C532.906 133.763 533.148 133.701 533.3 133.614C533.455 133.527 533.533 133.375 533.533 133.159V133.114C533.533 132.553 533.379 132.117 533.072 131.807C532.769 131.496 532.309 131.341 531.692 131.341C531.052 131.341 530.55 131.481 530.186 131.761C529.822 132.042 529.567 132.341 529.419 132.659L528.146 132.205C528.374 131.674 528.677 131.261 529.055 130.966C529.438 130.667 529.855 130.458 530.305 130.341C530.76 130.22 531.207 130.159 531.646 130.159C531.927 130.159 532.249 130.193 532.612 130.261C532.98 130.326 533.334 130.46 533.675 130.665C534.019 130.869 534.305 131.178 534.533 131.591C534.76 132.004 534.874 132.557 534.874 133.25V139H533.533V137.818H533.464C533.374 138.008 533.222 138.21 533.01 138.426C532.798 138.642 532.516 138.826 532.163 138.977C531.811 139.129 531.381 139.205 530.874 139.205ZM531.078 138C531.608 138 532.055 137.896 532.419 137.688C532.786 137.479 533.063 137.21 533.249 136.881C533.438 136.551 533.533 136.205 533.533 135.841V134.614C533.476 134.682 533.351 134.744 533.158 134.801C532.968 134.854 532.749 134.902 532.499 134.943C532.252 134.981 532.012 135.015 531.777 135.045C531.546 135.072 531.358 135.095 531.214 135.114C530.866 135.159 530.54 135.233 530.237 135.335C529.938 135.434 529.696 135.583 529.51 135.784C529.328 135.981 529.237 136.25 529.237 136.591C529.237 137.057 529.41 137.409 529.754 137.648C530.103 137.883 530.544 138 531.078 138ZM537.321 142.273V130.273H538.616V131.659H538.776C538.874 131.508 539.01 131.314 539.185 131.08C539.363 130.841 539.616 130.629 539.946 130.443C540.279 130.254 540.73 130.159 541.298 130.159C542.033 130.159 542.681 130.343 543.241 130.71C543.802 131.078 544.24 131.598 544.554 132.273C544.868 132.947 545.026 133.742 545.026 134.659C545.026 135.583 544.868 136.384 544.554 137.062C544.24 137.737 543.804 138.259 543.247 138.631C542.69 138.998 542.048 139.182 541.321 139.182C540.76 139.182 540.312 139.089 539.974 138.903C539.637 138.714 539.378 138.5 539.196 138.261C539.014 138.019 538.874 137.818 538.776 137.659H538.662V142.273H537.321ZM538.639 134.636C538.639 135.295 538.736 135.877 538.929 136.381C539.122 136.881 539.404 137.273 539.776 137.557C540.147 137.837 540.601 137.977 541.139 137.977C541.7 137.977 542.168 137.83 542.543 137.534C542.921 137.235 543.205 136.833 543.395 136.33C543.588 135.822 543.685 135.258 543.685 134.636C543.685 134.023 543.59 133.47 543.401 132.977C543.215 132.481 542.933 132.089 542.554 131.801C542.179 131.509 541.707 131.364 541.139 131.364C540.594 131.364 540.135 131.502 539.764 131.778C539.393 132.051 539.113 132.434 538.923 132.926C538.734 133.415 538.639 133.985 538.639 134.636ZM548.412 133.75V139H547.071V127.364H548.412V131.636H548.526C548.73 131.186 549.037 130.828 549.446 130.562C549.859 130.294 550.408 130.159 551.094 130.159C551.688 130.159 552.209 130.278 552.656 130.517C553.103 130.752 553.45 131.114 553.696 131.602C553.946 132.087 554.071 132.705 554.071 133.455V139H552.73V133.545C552.73 132.852 552.55 132.316 552.19 131.938C551.834 131.555 551.34 131.364 550.707 131.364C550.268 131.364 549.874 131.456 549.526 131.642C549.181 131.828 548.908 132.098 548.707 132.455C548.51 132.811 548.412 133.242 548.412 133.75ZM557.075 142.273C556.848 142.273 556.645 142.254 556.467 142.216C556.289 142.182 556.166 142.148 556.098 142.114L556.439 140.932C556.765 141.015 557.053 141.045 557.303 141.023C557.553 141 557.774 140.888 557.967 140.688C558.164 140.491 558.344 140.17 558.507 139.727L558.757 139.045L555.53 130.273H556.984L559.393 137.227H559.484L561.893 130.273H563.348L559.643 140.273C559.477 140.723 559.27 141.097 559.024 141.392C558.778 141.691 558.492 141.913 558.166 142.057C557.844 142.201 557.481 142.273 557.075 142.273Z" fill="black"/>
<rect x="643.5" y="114.5" width="122" height="37" fill="#D9D9D9" stroke="black" stroke-width="3"/>
<path d="M676.664 139.159C675.808 139.159 675.079 138.926 674.477 138.46C673.874 137.991 673.414 137.311 673.096 136.42C672.778 135.527 672.619 134.447 672.619 133.182C672.619 131.924 672.778 130.85 673.096 129.96C673.418 129.066 673.88 128.384 674.482 127.915C675.088 127.441 675.816 127.205 676.664 127.205C677.513 127.205 678.238 127.441 678.84 127.915C679.446 128.384 679.908 129.066 680.227 129.96C680.549 130.85 680.71 131.924 680.71 133.182C680.71 134.447 680.55 135.527 680.232 136.42C679.914 137.311 679.454 137.991 678.852 138.46C678.249 138.926 677.52 139.159 676.664 139.159ZM676.664 137.909C677.513 137.909 678.172 137.5 678.641 136.682C679.111 135.864 679.346 134.697 679.346 133.182C679.346 132.174 679.238 131.316 679.022 130.608C678.81 129.9 678.503 129.36 678.102 128.989C677.704 128.617 677.225 128.432 676.664 128.432C675.823 128.432 675.166 128.847 674.692 129.676C674.219 130.502 673.982 131.67 673.982 133.182C673.982 134.189 674.088 135.045 674.3 135.75C674.513 136.455 674.817 136.991 675.215 137.358C675.617 137.725 676.1 137.909 676.664 137.909ZM683.462 139.091C683.182 139.091 682.942 138.991 682.741 138.79C682.54 138.589 682.44 138.348 682.44 138.068C682.44 137.788 682.54 137.547 682.741 137.347C682.942 137.146 683.182 137.045 683.462 137.045C683.743 137.045 683.983 137.146 684.184 137.347C684.385 137.547 684.485 137.788 684.485 138.068C684.485 138.254 684.438 138.424 684.343 138.58C684.252 138.735 684.129 138.86 683.974 138.955C683.822 139.045 683.652 139.091 683.462 139.091ZM686.596 136.614V135.455L691.71 127.364H692.55V129.159H691.982L688.119 135.273V135.364H695.005V136.614H686.596ZM692.073 139V136.261V135.722V127.364H693.414V139H692.073ZM703.634 139L700.975 130.273H702.384L704.271 136.955H704.362L706.225 130.273H707.657L709.498 136.932H709.589L711.475 130.273H712.884L710.225 139H708.907L706.998 132.295H706.862L704.952 139H703.634ZM717.906 139.182C717.118 139.182 716.426 138.994 715.832 138.619C715.241 138.244 714.779 137.72 714.445 137.045C714.116 136.371 713.951 135.583 713.951 134.682C713.951 133.773 714.116 132.979 714.445 132.301C714.779 131.623 715.241 131.097 715.832 130.722C716.426 130.347 717.118 130.159 717.906 130.159C718.693 130.159 719.383 130.347 719.974 130.722C720.568 131.097 721.031 131.623 721.36 132.301C721.693 132.979 721.86 133.773 721.86 134.682C721.86 135.583 721.693 136.371 721.36 137.045C721.031 137.72 720.568 138.244 719.974 138.619C719.383 138.994 718.693 139.182 717.906 139.182ZM717.906 137.977C718.504 137.977 718.996 137.824 719.383 137.517C719.769 137.21 720.055 136.807 720.241 136.307C720.426 135.807 720.519 135.265 720.519 134.682C720.519 134.098 720.426 133.555 720.241 133.051C720.055 132.547 719.769 132.14 719.383 131.83C718.996 131.519 718.504 131.364 717.906 131.364C717.307 131.364 716.815 131.519 716.428 131.83C716.042 132.14 715.756 132.547 715.57 133.051C715.385 133.555 715.292 134.098 715.292 134.682C715.292 135.265 715.385 135.807 715.57 136.307C715.756 136.807 716.042 137.21 716.428 137.517C716.815 137.824 717.307 137.977 717.906 137.977ZM723.907 139V130.273H725.202V131.591H725.293C725.452 131.159 725.74 130.809 726.157 130.54C726.574 130.271 727.043 130.136 727.566 130.136C727.665 130.136 727.788 130.138 727.935 130.142C728.083 130.146 728.195 130.152 728.271 130.159V131.523C728.225 131.511 728.121 131.494 727.958 131.472C727.799 131.445 727.63 131.432 727.452 131.432C727.028 131.432 726.649 131.521 726.316 131.699C725.987 131.873 725.725 132.116 725.532 132.426C725.343 132.733 725.248 133.083 725.248 133.477V139H723.907ZM731.11 135.818L731.087 134.159H731.36L735.178 130.273H736.837L732.769 134.386H732.656L731.11 135.818ZM729.86 139V127.364H731.201V139H729.86ZM735.406 139L731.996 134.682L732.951 133.75L737.11 139H735.406Z" fill="black"/>
<rect x="826.5" y="114.5" width="122" height="37" fill="#D9D9D9" stroke="black" stroke-width="3"/>
<path d="M853.117 139.159C852.261 139.159 851.532 138.926 850.93 138.46C850.327 137.991 849.867 137.311 849.549 136.42C849.231 135.527 849.072 134.447 849.072 133.182C849.072 131.924 849.231 130.85 849.549 129.96C849.871 129.066 850.333 128.384 850.935 127.915C851.541 127.441 852.269 127.205 853.117 127.205C853.966 127.205 854.691 127.441 855.293 127.915C855.899 128.384 856.362 129.066 856.68 129.96C857.002 130.85 857.163 131.924 857.163 133.182C857.163 134.447 857.004 135.527 856.685 136.42C856.367 137.311 855.907 137.991 855.305 138.46C854.702 138.926 853.973 139.159 853.117 139.159ZM853.117 137.909C853.966 137.909 854.625 137.5 855.094 136.682C855.564 135.864 855.799 134.697 855.799 133.182C855.799 132.174 855.691 131.316 855.475 130.608C855.263 129.9 854.956 129.36 854.555 128.989C854.157 128.617 853.678 128.432 853.117 128.432C852.276 128.432 851.619 128.847 851.146 129.676C850.672 130.502 850.435 131.67 850.435 133.182C850.435 134.189 850.541 135.045 850.754 135.75C850.966 136.455 851.271 136.991 851.668 137.358C852.07 137.725 852.553 137.909 853.117 137.909ZM859.915 139.091C859.635 139.091 859.395 138.991 859.194 138.79C858.993 138.589 858.893 138.348 858.893 138.068C858.893 137.788 858.993 137.547 859.194 137.347C859.395 137.146 859.635 137.045 859.915 137.045C860.196 137.045 860.436 137.146 860.637 137.347C860.838 137.547 860.938 137.788 860.938 138.068C860.938 138.254 860.891 138.424 860.796 138.58C860.705 138.735 860.582 138.86 860.427 138.955C860.275 139.045 860.105 139.091 859.915 139.091ZM866.724 139.159C866.057 139.159 865.457 139.027 864.923 138.761C864.388 138.496 863.96 138.133 863.638 137.67C863.317 137.208 863.14 136.682 863.11 136.091H864.474C864.527 136.617 864.765 137.053 865.19 137.398C865.618 137.739 866.129 137.909 866.724 137.909C867.201 137.909 867.625 137.797 867.996 137.574C868.371 137.35 868.665 137.044 868.877 136.653C869.093 136.259 869.201 135.814 869.201 135.318C869.201 134.811 869.089 134.358 868.866 133.96C868.646 133.559 868.343 133.242 867.957 133.011C867.57 132.78 867.129 132.663 866.633 132.659C866.277 132.655 865.911 132.71 865.536 132.824C865.161 132.934 864.853 133.076 864.61 133.25L863.292 133.091L863.996 127.364H870.042V128.614H865.178L864.769 132.045H864.837C865.076 131.856 865.375 131.699 865.735 131.574C866.095 131.449 866.47 131.386 866.86 131.386C867.572 131.386 868.207 131.557 868.763 131.898C869.324 132.235 869.763 132.697 870.082 133.284C870.404 133.871 870.565 134.542 870.565 135.295C870.565 136.038 870.398 136.701 870.065 137.284C869.735 137.864 869.281 138.322 868.701 138.659C868.121 138.992 867.462 139.159 866.724 139.159ZM877.344 130.273H878.685V139.636C878.685 140.174 878.593 140.64 878.407 141.034C878.225 141.428 877.949 141.733 877.577 141.949C877.21 142.165 876.746 142.273 876.185 142.273C876.14 142.273 876.094 142.273 876.049 142.273C876.004 142.273 875.958 142.273 875.913 142.273V141.023C875.958 141.023 876 141.023 876.038 141.023C876.076 141.023 876.117 141.023 876.163 141.023C876.572 141.023 876.871 140.902 877.06 140.659C877.25 140.42 877.344 140.08 877.344 139.636V130.273ZM878.004 128.818C877.742 128.818 877.517 128.729 877.327 128.551C877.142 128.373 877.049 128.159 877.049 127.909C877.049 127.659 877.142 127.445 877.327 127.267C877.517 127.089 877.742 127 878.004 127C878.265 127 878.488 127.089 878.674 127.267C878.863 127.445 878.958 127.659 878.958 127.909C878.958 128.159 878.863 128.373 878.674 128.551C878.488 128.729 878.265 128.818 878.004 128.818ZM884.687 139.182C883.899 139.182 883.208 138.994 882.613 138.619C882.022 138.244 881.56 137.72 881.227 137.045C880.897 136.371 880.732 135.583 880.732 134.682C880.732 133.773 880.897 132.979 881.227 132.301C881.56 131.623 882.022 131.097 882.613 130.722C883.208 130.347 883.899 130.159 884.687 130.159C885.475 130.159 886.164 130.347 886.755 130.722C887.35 131.097 887.812 131.623 888.141 132.301C888.475 132.979 888.641 133.773 888.641 134.682C888.641 135.583 888.475 136.371 888.141 137.045C887.812 137.72 887.35 138.244 886.755 138.619C886.164 138.994 885.475 139.182 884.687 139.182ZM884.687 137.977C885.285 137.977 885.778 137.824 886.164 137.517C886.55 137.21 886.836 136.807 887.022 136.307C887.208 135.807 887.3 135.265 887.3 134.682C887.3 134.098 887.208 133.555 887.022 133.051C886.836 132.547 886.55 132.14 886.164 131.83C885.778 131.519 885.285 131.364 884.687 131.364C884.088 131.364 883.596 131.519 883.21 131.83C882.823 132.14 882.537 132.547 882.352 133.051C882.166 133.555 882.073 134.098 882.073 134.682C882.073 135.265 882.166 135.807 882.352 136.307C882.537 136.807 882.823 137.21 883.21 137.517C883.596 137.824 884.088 137.977 884.687 137.977ZM896.188 135.432V130.273H897.529V139H896.188V137.523H896.097C895.893 137.966 895.575 138.343 895.143 138.653C894.711 138.96 894.165 139.114 893.506 139.114C892.961 139.114 892.476 138.994 892.052 138.756C891.628 138.513 891.294 138.15 891.052 137.665C890.809 137.176 890.688 136.561 890.688 135.818V130.273H892.029V135.727C892.029 136.364 892.207 136.871 892.563 137.25C892.923 137.629 893.381 137.818 893.938 137.818C894.272 137.818 894.611 137.733 894.955 137.562C895.304 137.392 895.595 137.131 895.83 136.778C896.069 136.426 896.188 135.977 896.188 135.432ZM899.985 139V130.273H901.281V131.591H901.371C901.531 131.159 901.818 130.809 902.235 130.54C902.652 130.271 903.121 130.136 903.644 130.136C903.743 130.136 903.866 130.138 904.013 130.142C904.161 130.146 904.273 130.152 904.349 130.159V131.523C904.303 131.511 904.199 131.494 904.036 131.472C903.877 131.445 903.709 131.432 903.531 131.432C903.106 131.432 902.728 131.521 902.394 131.699C902.065 131.873 901.803 132.116 901.61 132.426C901.421 132.733 901.326 133.083 901.326 133.477V139H899.985ZM907.279 133.75V139H905.938V130.273H907.234V131.636H907.347C907.552 131.193 907.862 130.837 908.279 130.568C908.696 130.295 909.234 130.159 909.893 130.159C910.484 130.159 911.001 130.28 911.444 130.523C911.887 130.761 912.232 131.125 912.478 131.614C912.724 132.098 912.847 132.712 912.847 133.455V139H911.506V133.545C911.506 132.86 911.328 132.326 910.972 131.943C910.616 131.557 910.128 131.364 909.506 131.364C909.078 131.364 908.696 131.456 908.359 131.642C908.025 131.828 907.762 132.098 907.569 132.455C907.376 132.811 907.279 133.242 907.279 133.75ZM917.866 139.205C917.313 139.205 916.811 139.1 916.36 138.892C915.909 138.68 915.551 138.375 915.286 137.977C915.021 137.576 914.888 137.091 914.888 136.523C914.888 136.023 914.987 135.617 915.184 135.307C915.381 134.992 915.644 134.746 915.974 134.568C916.303 134.39 916.667 134.258 917.065 134.17C917.466 134.08 917.87 134.008 918.275 133.955C918.805 133.886 919.235 133.835 919.565 133.801C919.898 133.763 920.14 133.701 920.292 133.614C920.447 133.527 920.525 133.375 920.525 133.159V133.114C920.525 132.553 920.371 132.117 920.065 131.807C919.762 131.496 919.301 131.341 918.684 131.341C918.044 131.341 917.542 131.481 917.178 131.761C916.815 132.042 916.559 132.341 916.411 132.659L915.138 132.205C915.366 131.674 915.669 131.261 916.048 130.966C916.43 130.667 916.847 130.458 917.298 130.341C917.752 130.22 918.199 130.159 918.638 130.159C918.919 130.159 919.241 130.193 919.604 130.261C919.972 130.326 920.326 130.46 920.667 130.665C921.012 130.869 921.298 131.178 921.525 131.591C921.752 132.004 921.866 132.557 921.866 133.25V139H920.525V137.818H920.457C920.366 138.008 920.214 138.21 920.002 138.426C919.79 138.642 919.508 138.826 919.156 138.977C918.803 139.129 918.373 139.205 917.866 139.205ZM918.07 138C918.601 138 919.048 137.896 919.411 137.688C919.779 137.479 920.055 137.21 920.241 136.881C920.43 136.551 920.525 136.205 920.525 135.841V134.614C920.468 134.682 920.343 134.744 920.15 134.801C919.96 134.854 919.741 134.902 919.491 134.943C919.245 134.981 919.004 135.015 918.769 135.045C918.538 135.072 918.351 135.095 918.207 135.114C917.858 135.159 917.532 135.233 917.229 135.335C916.93 135.434 916.688 135.583 916.502 135.784C916.32 135.981 916.229 136.25 916.229 136.591C916.229 137.057 916.402 137.409 916.746 137.648C917.095 137.883 917.536 138 918.07 138ZM925.654 127.364V139H924.313V127.364H925.654Z" fill="black"/>
<line x1="110.5" y1="113" x2="110.5" y2="89" stroke="black"/>
<line x1="309.5" y1="113" x2="309.5" y2="89" stroke="black"/>
<line x1="499.5" y1="113" x2="499.5" y2="89" stroke="black"/>
<line x1="499.5" y1="89" x2="499.5" y2="65" stroke="black"/>
<line x1="704.5" y1="114" x2="704.5" y2="90" stroke="black"/>
<line x1="887.5" y1="113" x2="887.5" y2="89" stroke="black"/>
<line x1="111" y1="89.5" x2="888" y2="89.5" stroke="black"/>
</svg>
